<?xml version="1.0" encoding="UTF-8" standalone="no" ?>
<!DOCTYPE svg PUBLIC "-//W3C//DTD SVG 1.1//EN" "http://www.w3.org/Graphics/SVG/1.1/DTD/svg11.dtd">
<svg xmlns="http://www.w3.org/2000/svg" xmlns:xlink="http://www.w3.org/1999/xlink" version="1.1" width="16" height="16" viewBox="0 0 16 16" xml:space="preserve">
<desc>Created with Fabric.js 5.2.4</desc>
<defs>
</defs>
<g transform="matrix(1 0 0 1 8 8)" id="a9046f2f-2626-410e-b02b-0f842abf36ad"  >
<rect style="stroke: none; stroke-width: 1; stroke-dasharray: none; stroke-linecap: butt; stroke-dashoffset: 0; stroke-linejoin: miter; stroke-miterlimit: 4; fill: rgb(255,255,255); fill-rule: nonzero; opacity: 1; visibility: hidden;" vector-effect="non-scaling-stroke"  x="-8" y="-8" rx="0" ry="0" width="16" height="16" />
</g>
<g transform="matrix(Infinity NaN NaN Infinity 0 0)" id="f611ba24-976a-4996-b0b0-63239812f679"  >
</g>
<g transform="matrix(1 0 0 1 8 8)"  >
<g style="" vector-effect="non-scaling-stroke"   >
		<g transform="matrix(1 0 0 1 0 0)"  >
<path style="stroke: none; stroke-width: 1; stroke-dasharray: none; stroke-linecap: butt; stroke-dashoffset: 0; stroke-linejoin: miter; stroke-miterlimit: 4; fill: rgb(173,173,173); fill-rule: nonzero; opacity: 1;" vector-effect="non-scaling-stroke"  transform=" translate(-8, -8)" d="M 14 0 L 2 0 C 0.8954305003384131 0 0 0.8954305003384131 0 2 L 0 14 C 0 15.104569499661586 0.8954305003384131 16 2 16 L 14 16 C 15.104569499661586 16 16 15.104569499661586 16 14 L 16 2 C 16 0.8954305003384131 15.104569499661586 0 14 0 M 1 3.857 C 1 3.384 1.448 3 2 3 L 14 3 C 14.552 3 15 3.384 15 3.857 L 15 14.143 C 15 14.616000000000001 14.552 15 14 15 L 2 15 C 1.448 15 1 14.616 1 14.143 z" stroke-linecap="round" />
</g>
		<g transform="matrix(1 0 0 1 0 1)"  >
<path style="stroke: none; stroke-width: 1; stroke-dasharray: none; stroke-linecap: butt; stroke-dashoffset: 0; stroke-linejoin: miter; stroke-miterlimit: 4; fill: rgb(173,173,173); fill-rule: nonzero; opacity: 1;" vector-effect="non-scaling-stroke"  transform=" translate(-8, -9)" d="M 6.5 7 C 7.052284749830793 7 7.5 6.552284749830793 7.5 6 C 7.5 5.447715250169207 7.052284749830793 5 6.5 5 C 5.947715250169207 5 5.5 5.447715250169207 5.5 6 C 5.5 6.552284749830793 5.947715250169207 7 6.5 7 M 9.5 7 C 10.052284749830793 7 10.5 6.552284749830793 10.5 6 C 10.5 5.447715250169207 10.052284749830793 5 9.5 5 C 8.947715250169207 5 8.5 5.447715250169207 8.5 6 C 8.5 6.552284749830793 8.947715250169207 7 9.5 7 M 12.5 7 C 13.052284749830793 7 13.5 6.552284749830793 13.5 6 C 13.5 5.447715250169207 13.052284749830793 5 12.5 5 C 11.947715250169207 5 11.5 5.447715250169207 11.5 6 C 11.5 6.552284749830793 11.947715250169207 7 12.5 7 M 3.5 10 C 4.052284749830793 10 4.5 9.552284749830793 4.5 9 C 4.5 8.447715250169207 4.052284749830793 8 3.5 8 C 2.9477152501692068 8 2.5 8.447715250169207 2.5 9 C 2.5 9.552284749830793 2.9477152501692068 10 3.5 10 M 6.5 10 C 7.052284749830793 10 7.5 9.552284749830793 7.5 9 C 7.5 8.447715250169207 7.052284749830793 8 6.5 8 C 5.947715250169207 8 5.5 8.447715250169207 5.5 9 C 5.5 9.552284749830793 5.947715250169207 10 6.5 10 M 9.5 10 C 10.052284749830793 10 10.5 9.552284749830793 10.5 9 C 10.5 8.447715250169207 10.052284749830793 8 9.5 8 C 8.947715250169207 8 8.5 8.447715250169207 8.5 9 C 8.5 9.552284749830793 8.947715250169207 10 9.5 10 M 12.5 10 C 13.052284749830793 10 13.5 9.552284749830793 13.5 9 C 13.5 8.447715250169207 13.052284749830793 8 12.5 8 C 11.947715250169207 8 11.5 8.447715250169207 11.5 9 C 11.5 9.552284749830793 11.947715250169207 10 12.5 10 M 3.5 13 C 4.052284749830793 13 4.5 12.552284749830793 4.5 12 C 4.5 11.447715250169207 4.052284749830793 11 3.5 11 C 2.9477152501692068 11 2.5 11.447715250169207 2.5 12 C 2.5 12.552284749830793 2.9477152501692068 13 3.5 13 M 6.5 13 C 7.052284749830793 13 7.5 12.552284749830793 7.5 12 C 7.5 11.447715250169207 7.052284749830793 11 6.5 11 C 5.947715250169207 11 5.5 11.447715250169207 5.5 12 C 5.5 12.552284749830793 5.947715250169207 13 6.5 13 M 9.5 13 C 10.052284749830793 13 10.5 12.552284749830793 10.5 12 C 10.5 11.447715250169207 10.052284749830793 11 9.5 11 C 8.947715250169207 11 8.5 11.447715250169207 8.5 12 C 8.5 12.552284749830793 8.947715250169207 13 9.5 13" stroke-linecap="round" />
</g>
</g>
</g>
</svg>