<?xml version="1.0" encoding="utf-8"?>
<!-- Generator: Adobe Illustrator 18.0.0, SVG Export Plug-In . SVG Version: 6.00 Build 0)  -->
<!DOCTYPE svg PUBLIC "-//W3C//DTD SVG 1.1//EN" "http://www.w3.org/Graphics/SVG/1.1/DTD/svg11.dtd">
<svg version="1.1" id="Capa_1" xmlns="http://www.w3.org/2000/svg" xmlns:xlink="http://www.w3.org/1999/xlink" x="0px" y="0px"
	 viewBox="0 0 800 800" enable-background="new 0 0 800 800" xml:space="preserve">
<g>
	<g id="_x35__13_">
		<g>
			<path fill="#90959F" d="M91.4,203C65.8,203,45,223.8,45,249.4v93.4C19.2,349.2,0,372.3,0,400c0,27.8,19.2,50.8,45,57.2v93.4
				c0,25.6,20.8,46.4,46.4,46.4c25.6,0,46.4-20.8,46.4-46.4V249.4C137.8,223.8,117,203,91.4,203z"/>
			<path fill="#90959F" d="M551.1,107.6c-38,0-68.9,30.8-68.9,68.9v154.7h-21.1h-99.8H329l-11.2-0.3V176.4c0-38-30.8-68.9-68.9-68.9
				c-38,0-68.9,30.8-68.9,68.9v447.1c0,38,30.8,68.9,68.9,68.9c38.1,0,68.9-30.8,68.9-68.9V469.2c0,0,7.4-0.3,11.2-0.3h32.3h99.8
				h21.1v154.7c0,38,30.8,68.9,68.9,68.9c38.1,0,68.9-30.8,68.9-68.9V176.4C620,138.4,589.2,107.6,551.1,107.6z"/>
			<path fill="#90959F" d="M755,342.8v-93.4c0-25.6-20.8-46.4-46.4-46.4c-25.6,0-46.4,20.8-46.4,46.4v301.1
				c0,25.6,20.8,46.4,46.4,46.4c25.6,0,46.4-20.8,46.4-46.4v-93.4c25.8-6.3,45-29.4,45-57.2C800,372.3,780.8,349.2,755,342.8z"/>
		</g>
	</g>
</g>
</svg>
